<svg width="200" height="59" fill="none" xmlns="http://www.w3.org/2000/svg"><rect width="200" height="59" rx="16" fill="#fff"/><path d="M41.683 27.067c-.043-4.773 3.91-7.095 4.09-7.203-2.238-3.263-5.708-3.709-6.927-3.744-2.914-.307-5.74 1.743-7.225 1.743-1.514 0-3.8-1.713-6.264-1.663-3.17.049-6.136 1.884-7.763 4.733-3.357 5.81-.853 14.347 2.363 19.043 1.61 2.3 3.49 4.868 5.95 4.778 2.407-.1 3.306-1.534 6.212-1.534 2.878 0 3.723 1.534 6.232 1.476 2.584-.041 4.21-2.31 5.763-4.63 1.86-2.637 2.606-5.233 2.636-5.366-.061-.021-5.018-1.912-5.067-7.633zM36.943 13.034c1.295-1.618 2.18-3.82 1.935-6.055-1.874.083-4.218 1.296-5.568 2.879-1.194 1.395-2.26 3.681-1.985 5.832 2.105.157 4.267-1.062 5.618-2.656z" fill="#000"/><path fill-rule="evenodd" clip-rule="evenodd" d="M73.155 44.426h3.364l-6.377-19.708h-3.92l-6.347 19.708h3.276l1.755-5.789h6.406l1.843 5.789zm-4.067-13.364 1.666 5.146h-5.293l1.637-5.146c.43-1.636.742-2.874.936-3.712h.06c.487 1.948.817 3.186.994 3.712zM90.883 42.875c1.306-1.402 1.96-3.313 1.96-5.73 0-2.163-.56-3.908-1.683-5.235-1.12-1.325-2.52-1.987-4.197-1.987-2.145 0-3.744.847-4.797 2.544h-.06l-.176-2.252h-2.778c.077 1.599.117 3.158.117 4.678v15.323h3.159V42.73h.06c.818 1.345 2.164 2.017 4.036 2.017 1.735 0 3.188-.623 4.359-1.872zm-2.194-9.033c.625.897.936 2.037.936 3.42 0 1.502-.332 2.71-.995 3.627-.662.915-1.588 1.375-2.778 1.375-1.013 0-1.837-.356-2.471-1.068-.634-.712-.951-1.585-.951-2.618v-2.37c0-.252.049-.572.146-.963.194-.838.61-1.515 1.243-2.033.633-.514 1.341-.774 2.12-.774 1.15 0 2.067.468 2.75 1.404zM107.235 42.875c1.308-1.402 1.962-3.313 1.962-5.73 0-2.163-.562-3.908-1.68-5.235-1.123-1.325-2.523-1.987-4.199-1.987-2.146 0-3.745.847-4.797 2.544h-.06l-.175-2.252h-2.778c.077 1.599.117 3.158.117 4.678v15.323h3.158V42.73h.06c.817 1.345 2.163 2.017 4.035 2.017 1.735 0 3.188-.623 4.357-1.872zm-2.192-9.033c.625.897.938 2.037.938 3.42 0 1.502-.332 2.71-.996 3.627-.662.915-1.588 1.375-2.778 1.375-1.016 0-1.84-.357-2.474-1.068-.63-.712-.948-1.585-.948-2.618v-2.37c0-.252.05-.572.147-.963.194-.838.607-1.515 1.241-2.033.634-.514 1.341-.774 2.122-.774 1.151 0 2.065.468 2.748 1.404z" fill="#000"/><path d="M127.477 38.899c0 1.676-.582 3.04-1.751 4.093-1.284 1.151-3.072 1.726-5.37 1.726-2.122 0-3.822-.41-5.11-1.228l.732-2.632c1.387.839 2.908 1.26 4.566 1.26 1.19 0 2.115-.27 2.781-.807.662-.536.992-1.255.992-2.153 0-.8-.272-1.473-.819-2.02-.544-.546-1.452-1.054-2.72-1.524-3.452-1.287-5.176-3.172-5.176-5.651 0-1.62.604-2.948 1.814-3.982 1.206-1.035 2.815-1.552 4.827-1.552 1.794 0 3.285.312 4.474.936l-.789 2.574c-1.112-.605-2.368-.907-3.774-.907-1.111 0-1.979.274-2.601.82-.526.486-.79 1.08-.79 1.784 0 .779.301 1.423.905 1.93.526.467 1.482.974 2.868 1.52 1.697.683 2.943 1.481 3.744 2.397.799.912 1.197 2.053 1.197 3.416zM137.919 32.584h-3.481v6.9c0 1.755.613 2.632 1.843 2.632.564 0 1.033-.05 1.403-.147l.087 2.398c-.622.232-1.441.35-2.456.35-1.247 0-2.222-.381-2.926-1.141-.701-.761-1.053-2.038-1.053-3.831v-7.163h-2.074v-2.37h2.074V27.61l3.102-.936v3.538h3.481v2.372z" fill="#000"/><path fill-rule="evenodd" clip-rule="evenodd" d="M151.759 42.582c1.247-1.403 1.872-3.196 1.872-5.38 0-2.125-.604-3.86-1.816-5.203-1.266-1.385-2.945-2.076-5.031-2.076-2.164 0-3.886.702-5.161 2.106-1.279 1.402-1.916 3.206-1.916 5.408 0 2.105.619 3.85 1.858 5.234 1.238 1.383 2.899 2.075 4.985 2.075 2.164 0 3.901-.72 5.209-2.164zm-2.254-8.651c.567.937.847 2.061.847 3.372 0 1.309-.293 2.445-.875 3.4-.683 1.152-1.63 1.73-2.836 1.73-1.231 0-2.185-.566-2.868-1.7-.567-.936-.847-2.06-.847-3.371 0-1.35.28-2.492.847-3.431.662-1.133 1.627-1.7 2.896-1.7 1.227 0 2.174.565 2.836 1.7z" fill="#000"/><path d="M163.895 32.991a5.488 5.488 0 0 0-.996-.087c-1.111 0-1.97.42-2.574 1.259-.526.74-.79 1.676-.79 2.806v7.457h-3.157l.03-9.736c0-1.638-.04-3.13-.119-4.474h2.751l.116 2.72h.087c.333-.935.859-1.688 1.579-2.252.704-.508 1.464-.761 2.283-.761.292 0 .556.02.79.058v3.01z" fill="#000"/><path fill-rule="evenodd" clip-rule="evenodd" d="M177.905 38.08c.079-.39.116-.867.116-1.433 0-1.773-.419-3.265-1.254-4.472-1.053-1.52-2.604-2.28-4.653-2.28-2.086 0-3.744.76-4.97 2.28-1.172 1.423-1.757 3.207-1.757 5.35 0 2.183.629 3.923 1.886 5.22 1.259 1.295 2.989 1.944 5.194 1.944 1.832 0 3.42-.292 4.766-.879l-.495-2.191c-1.151.448-2.431.672-3.834.672-1.268 0-2.301-.332-3.1-.994-.88-.74-1.337-1.814-1.374-3.218h9.475zm-3.509-4.677c.428.682.634 1.491.613 2.427v-.002h-6.579c.096-.953.409-1.772.935-2.455.641-.859 1.481-1.287 2.514-1.287 1.13 0 1.97.439 2.517 1.317zM68.152 16.536c1.044-.881 1.567-2.194 1.567-3.937 0-1.552-.484-2.744-1.45-3.577-.862-.738-2.14-1.107-3.837-1.107-.96 0-1.849.068-2.674.202v9.524c.632.077 1.388.115 2.27.115 1.782 0 3.156-.407 4.124-1.22zm-.973-6.494c.598.605.897 1.47.897 2.6 0 1.266-.325 2.228-.971 2.889-.646.66-1.563.99-2.751.99-.509 0-.858-.013-1.05-.043v-7.24c.346-.068.762-.1 1.251-.1 1.151 0 2.025.302 2.624.904zM77.479 16.766c.613-.69.92-1.57.92-2.644 0-1.042-.298-1.895-.89-2.556-.624-.68-1.448-1.019-2.473-1.019-1.064 0-1.909.345-2.537 1.034-.628.689-.94 1.576-.94 2.657 0 1.033.303 1.89.91 2.57.61.682 1.426 1.02 2.451 1.02 1.064 0 1.916-.353 2.559-1.062zm-1.107-4.248c.277.46.416 1.013.416 1.657 0 .645-.143 1.202-.43 1.671-.335.567-.8.85-1.393.85-.605 0-1.073-.278-1.41-.835-.276-.46-.415-1.013-.415-1.657 0-.664.137-1.225.416-1.686.326-.557.8-.835 1.424-.835.603 0 1.066.278 1.392.835z" fill="#000"/><path d="m90.04 10.688-2.185 6.98h-1.422l-.905-3.03c-.23-.757-.416-1.51-.562-2.256h-.028a16.503 16.503 0 0 1-.561 2.255l-.962 3.032h-1.438l-2.055-6.981h1.595l.79 3.319c.191.784.348 1.532.474 2.24h.028a24.8 24.8 0 0 1 .577-2.226l.99-3.332h1.266l.95 3.261c.23.796.416 1.561.56 2.299h.043c.105-.719.263-1.484.474-2.299l.847-3.26h1.524v-.002zM98.086 17.671h-1.552v-3.998c0-1.233-.468-1.849-1.408-1.849-.46 0-.832.17-1.121.508-.286.34-.431.74-.431 1.197v4.14H92.02v-4.984c0-.613-.02-1.278-.056-1.998h1.364l.073 1.091h.043c.18-.339.45-.619.804-.842.421-.26.892-.393 1.408-.393.651 0 1.194.21 1.625.633.536.517.804 1.288.804 2.313v4.182zM102.368 17.666h-1.552V7.482h1.552v10.184z" fill="#000"/><path fill-rule="evenodd" clip-rule="evenodd" d="M110.592 16.766c.613-.69.92-1.57.92-2.644 0-1.042-.298-1.895-.89-2.556-.626-.68-1.448-1.019-2.475-1.019-1.062 0-1.906.345-2.534 1.034-.629.689-.941 1.576-.941 2.657 0 1.033.304 1.89.911 2.57.607.682 1.424 1.02 2.45 1.02 1.063 0 1.916-.353 2.559-1.062zm-1.108-4.248c.277.46.416 1.013.416 1.657 0 .645-.142 1.202-.431 1.671-.335.567-.798.85-1.391.85-.604 0-1.072-.278-1.409-.835-.277-.46-.416-1.013-.416-1.657 0-.664.138-1.225.416-1.686.325-.557.799-.835 1.424-.835.601 0 1.067.278 1.391.835zM117.628 17.67h1.394c-.066-.411-.1-.967-.1-1.664v-2.571c0-1.925-.916-2.888-2.741-2.888-.945 0-1.747.202-2.396.603l.316 1.019c.524-.344 1.132-.517 1.821-.517.967 0 1.45.459 1.45 1.379v.13c-1.293-.01-2.298.21-3.012.66-.715.45-1.071 1.1-1.071 1.954 0 .564.182 1.04.547 1.422.401.42.935.632 1.594.632.883 0 1.563-.321 2.04-.963h.043l.115.805zm-.215-3.478v1.077a1.318 1.318 0 0 1-.563 1.1 1.57 1.57 0 0 1-.95.322c-.304 0-.558-.09-.758-.273-.2-.182-.298-.454-.298-.819 0-.967.856-1.437 2.569-1.407zM126.465 17.666h1.377a29.459 29.459 0 0 1-.054-1.88V7.482h-1.554v4.007h-.03c-.373-.632-1.03-.948-1.967-.948-.854 0-1.571.326-2.156.978-.604.699-.905 1.614-.905 2.744 0 1.053.277 1.91.832 2.571.556.66 1.257.99 2.098.99 1.053 0 1.803-.426 2.243-1.279h.043l.073 1.121zm-.232-4.107v1.165c0 .497-.146.924-.446 1.278-.309.383-.717.574-1.226.574-.568 0-1.021-.23-1.357-.688-.319-.431-.477-.991-.477-1.681 0-.719.167-1.307.497-1.767.334-.46.787-.69 1.366-.69.402 0 .75.127 1.039.38.286.254.474.568.561.94.028.125.043.288.043.49zM140.209 16.766c.613-.69.92-1.57.92-2.644 0-1.042-.298-1.895-.89-2.556-.623-.68-1.448-1.019-2.471-1.019-1.066 0-1.91.345-2.538 1.034-.628.689-.941 1.576-.941 2.657 0 1.033.304 1.89.911 2.57.611.682 1.427 1.02 2.451 1.02 1.065 0 1.915-.353 2.558-1.062zm-1.105-4.248c.277.46.416 1.013.416 1.657 0 .645-.145 1.202-.431 1.671-.334.567-.801.85-1.394.85-.604 0-1.072-.278-1.409-.835-.277-.46-.416-1.013-.416-1.657 0-.664.138-1.225.416-1.686.328-.557.802-.835 1.424-.835.605 0 1.067.278 1.394.835z" fill="#000"/><path d="M149.475 17.671h-1.551v-3.998c0-1.233-.468-1.849-1.409-1.849-.46 0-.832.17-1.12.508-.287.34-.431.74-.431 1.197v4.14h-1.554v-4.984c0-.613-.017-1.278-.055-1.998h1.363l.073 1.091h.043c.182-.339.452-.619.804-.842.423-.26.892-.393 1.409-.393.651 0 1.193.21 1.624.633.538.517.804 1.288.804 2.313v4.182zM159.921 11.855h-1.709v3.391c0 .862.303 1.293.905 1.293.278 0 .509-.023.692-.072l.04 1.177c-.307.116-.71.173-1.206.173-.614 0-1.091-.186-1.436-.56-.346-.373-.518-1-.518-1.882v-3.52h-1.021v-1.162h1.021v-1.28l1.521-.459v1.737h1.71v1.164h.001zM168.139 17.666h-1.554v-3.969c0-1.251-.468-1.877-1.406-1.877-.72 0-1.211.362-1.481 1.088-.046.153-.073.34-.073.558v4.199h-1.551V7.482h1.551v4.207h.03c.489-.765 1.19-1.148 2.098-1.148.643 0 1.175.21 1.597.633.526.526.789 1.308.789 2.341v4.151z" fill="#000"/><path fill-rule="evenodd" clip-rule="evenodd" d="M176.561 14.546c.037-.19.058-.425.058-.703 0-.87-.206-1.604-.622-2.196-.516-.747-1.279-1.12-2.283-1.12-1.027 0-1.84.373-2.442 1.12-.576.699-.862 1.575-.862 2.628 0 1.072.307 1.927.926 2.564.616.637 1.468.955 2.55.955.902 0 1.681-.144 2.343-.431l-.243-1.078a5.14 5.14 0 0 1-1.883.33c-.622 0-1.13-.163-1.524-.488-.431-.365-.653-.89-.674-1.58h4.656zm-1.727-2.294c.211.335.313.732.301 1.193h-3.233c.051-.47.203-.871.461-1.208.316-.422.729-.632 1.236-.632.555 0 .966.216 1.235.647z" fill="#000"/></svg>