<svg width="32" height="32" fill="none" xmlns="http://www.w3.org/2000/svg"><path d="M16 25c6.075 0 11-1.12 11-2.5S22.075 20 16 20 5 21.12 5 22.5 9.925 25 16 25z" fill="#63C74D"/><path fill-rule="evenodd" clip-rule="evenodd" d="M6 16.557C6 12.73 8.468 9.44 12 8v11.169c-1.466.128-2.788.325-3.889.576-.823.187-1.541.407-2.111.66v-3.848zm20 3.848v-3.848C26 12.73 23.532 9.44 20 8v11.169c1.466.128 2.788.325 3.889.576.823.187 1.541.407 2.111.66zM15 6a2 2 0 0 0-2 2v11.093A47.43 47.43 0 0 1 16 19c1.038 0 2.044.032 3 .093V8a2 2 0 0 0-2-2h-2z" fill="#63C74D"/></svg>