<svg width="32" height="32" fill="none" xmlns="http://www.w3.org/2000/svg"><path fill-rule="evenodd" clip-rule="evenodd" d="M10.441 9h11.117a1 1 0 0 1 .95.684L23.612 13H8.387l1.106-3.316A1 1 0 0 1 10.44 9zm13.015.368L24.666 13 25 14a2 2 0 0 1 2 2v4a2 2 0 0 1-2 2v2a1 1 0 0 1-1 1h-2a1 1 0 0 1-1-1v-2H11v2a1 1 0 0 1-1 1H8a1 1 0 0 1-1-1v-2a2 2 0 0 1-2-2v-4a2 2 0 0 1 2-2l.333-1 1.211-3.632A2 2 0 0 1 10.441 8h11.117a2 2 0 0 1 1.898 1.368zM9 20a2 2 0 1 0 0-4 2 2 0 0 0 0 4zm16-2a2 2 0 1 1-4 0 2 2 0 0 1 4 0z" fill="#FF5C5C"/></svg>