<svg width="200" height="59" fill="none" xmlns="http://www.w3.org/2000/svg"><rect width="200" height="59" rx="16" fill="#fff"/><path d="M70.217 14c0 1.181-.296 2.214-1.037 2.951-.889.886-1.926 1.328-3.26 1.328-1.333 0-2.37-.442-3.259-1.328-.888-.885-1.333-1.918-1.333-3.245 0-1.328.445-2.36 1.333-3.246.89-.885 1.926-1.328 3.26-1.328.592 0 1.185.148 1.777.443.593.295 1.038.59 1.334 1.032l-.74.738c-.594-.738-1.334-1.033-2.371-1.033-.89 0-1.778.295-2.37 1.033-.741.59-1.038 1.475-1.038 2.508s.297 1.918 1.037 2.508c.741.59 1.482 1.033 2.37 1.033 1.038 0 1.778-.295 2.52-1.033.444-.442.74-1.032.74-1.77h-3.26v-1.033h4.297v.443zM77.033 10.316h-4v2.803h3.704v1.033h-3.704v2.803h4v1.18h-5.185V9.285h5.185v1.032zM81.922 18.136h-1.185v-7.82H78.22V9.284h6.222v1.032h-2.519v7.82zM88.738 18.136V9.284h1.186v8.852h-1.186zM94.958 18.137h-1.186v-7.82h-2.518V9.284h6.074v1.033h-2.519v7.82h.149zM109.028 16.952c-.889.886-1.926 1.328-3.26 1.328-1.333 0-2.37-.442-3.259-1.328-.889-.885-1.333-1.918-1.333-3.245 0-1.328.444-2.361 1.333-3.246.889-.885 1.926-1.328 3.259-1.328 1.334 0 2.371.443 3.26 1.328.889.885 1.333 1.918 1.333 3.246 0 1.327-.444 2.36-1.333 3.245zm-5.63-.737c.593.59 1.481 1.032 2.37 1.032s1.778-.295 2.371-1.032a3.554 3.554 0 0 0 1.037-2.508c0-1.033-.297-1.918-1.037-2.509-.593-.59-1.482-1.032-2.371-1.032s-1.777.295-2.37 1.032a3.55 3.55 0 0 0-1.037 2.509c0 1.032.296 1.918 1.037 2.508zM111.996 18.136V9.284h1.333l4.297 6.934V9.284h1.185v8.852h-1.185l-4.593-7.23v7.23h-1.037z" fill="#000" stroke="#fff" stroke-width=".2" stroke-miterlimit="10"/><path d="M100.891 31.115c-3.556 0-6.37 2.655-6.37 6.344 0 3.54 2.814 6.344 6.37 6.344 3.555 0 6.37-2.656 6.37-6.344 0-3.836-2.815-6.344-6.37-6.344zm0 10.032c-1.926 0-3.556-1.623-3.556-3.836s1.63-3.836 3.556-3.836c1.926 0 3.555 1.475 3.555 3.836 0 2.213-1.629 3.836-3.555 3.836zM87.113 31.115c-3.556 0-6.37 2.655-6.37 6.344 0 3.54 2.814 6.344 6.37 6.344 3.555 0 6.37-2.656 6.37-6.344 0-3.836-2.815-6.344-6.37-6.344zm0 10.032c-1.926 0-3.556-1.623-3.556-3.836s1.63-3.836 3.556-3.836c1.926 0 3.555 1.475 3.555 3.836 0 2.213-1.63 3.836-3.555 3.836zm-16.445-8.114v2.655h6.37c-.147 1.475-.74 2.656-1.48 3.393-.89.886-2.371 1.918-4.89 1.918-4 0-6.963-3.098-6.963-7.081 0-3.984 3.112-7.082 6.963-7.082 2.075 0 3.704.885 4.89 1.918l1.925-1.918c-1.63-1.475-3.704-2.656-6.666-2.656-5.334 0-9.926 4.426-9.926 9.738 0 5.311 4.592 9.737 9.926 9.737 2.963 0 5.037-.885 6.814-2.803 1.778-1.77 2.37-4.279 2.37-6.197 0-.59 0-1.18-.147-1.623h-9.186zm67.26 2.065c-.593-1.475-2.074-3.983-5.334-3.983-3.259 0-5.926 2.508-5.926 6.344 0 3.54 2.667 6.344 6.223 6.344 2.814 0 4.592-1.77 5.185-2.803l-2.074-1.476c-.741 1.033-1.63 1.77-3.111 1.77-1.482 0-2.371-.59-3.111-1.917l8.444-3.541-.296-.738zm-8.593 2.066c0-2.361 1.926-3.689 3.259-3.689 1.037 0 2.074.59 2.371 1.328l-5.63 2.36zm-6.963 6.048h2.815V24.77h-2.815v18.442zm-4.444-10.77c-.741-.737-1.926-1.475-3.408-1.475-3.111 0-6.074 2.803-6.074 6.344 0 3.54 2.815 6.197 6.074 6.197 1.482 0 2.667-.738 3.26-1.476h.148v.885c0 2.361-1.334 3.689-3.408 3.689-1.629 0-2.815-1.18-3.111-2.213l-2.37 1.033c.741 1.622 2.518 3.688 5.629 3.688 3.26 0 5.926-1.918 5.926-6.492V31.41h-2.666v1.032zm-3.26 8.705c-1.926 0-3.555-1.623-3.555-3.836s1.629-3.836 3.555-3.836c1.926 0 3.408 1.623 3.408 3.836s-1.482 3.836-3.408 3.836zm36.149-16.377h-6.667v18.442h2.815v-6.934h3.852c3.111 0 6.074-2.213 6.074-5.754 0-3.54-2.963-5.754-6.074-5.754zm.148 8.853h-4v-6.344h4c2.074 0 3.259 1.77 3.259 3.098-.148 1.623-1.333 3.246-3.259 3.246zm17.037-2.656c-2.074 0-4.148.885-4.889 2.803l2.518 1.033c.593-1.033 1.482-1.328 2.519-1.328 1.481 0 2.815.885 2.963 2.36v.148c-.445-.295-1.63-.737-2.815-.737-2.667 0-5.333 1.475-5.333 4.13 0 2.509 2.222 4.132 4.592 4.132 1.926 0 2.815-.886 3.556-1.77h.148v1.474h2.667v-7.081c-.297-3.246-2.815-5.164-5.926-5.164zm-.297 10.18c-.888 0-2.222-.443-2.222-1.623 0-1.475 1.63-1.918 2.963-1.918 1.185 0 1.778.295 2.519.59-.297 1.77-1.778 2.951-3.26 2.951zm15.556-9.737-3.111 7.967h-.148l-3.259-7.967h-2.963l4.888 11.212-2.814 6.197h2.814l7.556-17.41h-2.963zm-24.889 11.802h2.815V24.77h-2.815v18.442z" fill="#000"/><path d="M15.4 10.01c-.444.442-.74 1.18-.74 2.065v32.606c0 .885.296 1.623.74 2.065l.149.148 18.37-18.295v-.295L15.401 10.01z" fill="url(#a)"/><path d="m39.988 34.804-6.074-6.05V28.313l6.074-6.049.148.148 7.26 4.13c2.074 1.18 2.074 3.099 0 4.28l-7.408 3.983z" fill="url(#b)"/><path d="m40.14 34.65-6.223-6.197-18.519 18.442c.741.738 1.778.738 3.111.147L40.14 34.65z" fill="url(#c)"/><path d="M40.14 22.257 18.51 10.011c-1.334-.737-2.37-.59-3.112.148l18.519 18.294 6.222-6.196z" fill="url(#d)"/><path opacity=".2" d="M39.995 34.5 18.514 46.6c-1.186.737-2.223.59-2.963 0l-.149.147.149.148c.74.59 1.777.737 2.963 0L39.993 34.5z" fill="#000"/><path opacity=".12" d="M15.401 46.602c-.444-.443-.592-1.18-.592-2.066v.147c0 .886.296 1.624.74 2.066v-.147h-.148zM47.404 30.37l-7.408 4.131.148.148 7.26-4.131c1.036-.59 1.481-1.328 1.481-2.066 0 .738-.593 1.328-1.481 1.918z" fill="#000"/><path opacity=".25" d="m18.516 10.16 28.89 16.376c.888.59 1.48 1.18 1.48 1.918 0-.738-.444-1.475-1.48-2.065l-28.89-16.377c-2.074-1.18-3.703-.147-3.703 2.213v.148c0-2.36 1.63-3.394 3.703-2.213z" fill="#fff"/><defs><linearGradient id="a" x1="32.289" y1="11.794" x2="7.529" y2="36.657" gradientUnits="userSpaceOnUse"><stop stop-color="#00A0FF"/><stop offset=".007" stop-color="#00A1FF"/><stop offset=".26" stop-color="#00BEFF"/><stop offset=".512" stop-color="#00D2FF"/><stop offset=".76" stop-color="#00DFFF"/><stop offset="1" stop-color="#00E3FF"/></linearGradient><linearGradient id="b" x1="50.113" y1="28.462" x2="14.266" y2="28.462" gradientUnits="userSpaceOnUse"><stop stop-color="#FFE000"/><stop offset=".409" stop-color="#FFBD00"/><stop offset=".775" stop-color="orange"/><stop offset="1" stop-color="#FF9C00"/></linearGradient><linearGradient id="c" x1="36.772" y1="31.84" x2="3.195" y2="65.556" gradientUnits="userSpaceOnUse"><stop stop-color="#FF3A44"/><stop offset="1" stop-color="#C31162"/></linearGradient><linearGradient id="d" x1="10.802" y1="-.794" x2="25.795" y2="14.262" gradientUnits="userSpaceOnUse"><stop stop-color="#32A071"/><stop offset=".069" stop-color="#2DA771"/><stop offset=".476" stop-color="#15CF74"/><stop offset=".801" stop-color="#06E775"/><stop offset="1" stop-color="#00F076"/></linearGradient></defs></svg>