<svg width="32" height="32" fill="none" xmlns="http://www.w3.org/2000/svg"><path fill-rule="evenodd" clip-rule="evenodd" d="M9.243 17.435a2 2 0 1 1 2.828 2.829 2 2 0 0 1-2.828-2.829zm3.446-2.032 2.15-2.15-3.01-3.01-1.06-.354-1.061-1.768 1.414-1.414 1.768 1.06.353 1.062 3.01 3.01 5.01-5.01a1 1 0 1 1 1.415 1.414l2.121 2.121-2.828 2.829-2.121-2.122-2.182 2.182 1.94 1.94a1 1 0 0 1 1.414 0l4.242 4.242a2 2 0 0 1-2.828 2.829l-4.243-4.243a1 1 0 0 1 0-1.414l-1.94-1.94-2.15 2.15a4.002 4.002 0 0 1-6.274 4.86 4 4 0 0 1 4.86-6.274z" fill="#FF9F2F"/></svg>