<svg width="166" height="166" fill="none" xmlns="http://www.w3.org/2000/svg"><g clip-path="url(#a)"><rect y="48.58" width="140" height="115" rx="8" transform="rotate(-10.112 0 48.58)" fill="#FBFBFB"/><rect x="48.375" y="52.143" width="10" height="2" rx="1" transform="rotate(-10.112 48.375 52.143)" fill="url(#b)"/><rect x="66.098" y="48.982" width="10" height="2" rx="1" transform="rotate(-10.112 66.098 48.982)" fill="url(#c)"/><rect x="83.816" y="45.822" width="10" height="2" rx="1" transform="rotate(-10.112 83.816 45.822)" fill="#C4C4C4"/><rect x="30.512" y="71.58" width="88" height="10" rx="1" transform="rotate(-10.112 30.512 71.58)" fill="#EBEBEB"/><rect x="33.32" y="87.332" width="88" height="10" rx="1" transform="rotate(-10.112 33.32 87.332)" fill="#EBEBEB"/><rect x="36.129" y="103.084" width="88" height="10" rx="1" transform="rotate(-10.112 36.129 103.084)" fill="#EBEBEB"/><rect x="59.047" y="123.375" width="48" height="16" rx="8" transform="rotate(-10.112 59.047 123.375)" fill="url(#d)"/><rect x="71.914" y="127.174" width="25" height="4" rx="2" transform="rotate(-10.112 71.914 127.174)" fill="#fff"/><g filter="url(#e)"><circle cx="131" cy="35" r="27" fill="#fff"/><circle cx="131" cy="35" r="23" fill="#F4F3F3"/><path d="M154 35a22.998 22.998 0 0 0-14.198-21.25A23.004 23.004 0 0 0 131 12v23h23z" fill="#68D450"/></g></g><defs><linearGradient id="b" x1="53.375" y1="52.143" x2="53.375" y2="54.143" gradientUnits="userSpaceOnUse"><stop stop-color="#63C74D"/><stop offset="1" stop-color="#6CE153"/></linearGradient><linearGradient id="c" x1="71.098" y1="48.982" x2="71.098" y2="50.982" gradientUnits="userSpaceOnUse"><stop stop-color="#63C74D"/><stop offset="1" stop-color="#6CE153"/></linearGradient><linearGradient id="d" x1="83.047" y1="123.375" x2="83.047" y2="139.375" gradientUnits="userSpaceOnUse"><stop stop-color="#63C74D"/><stop offset="1" stop-color="#6CE153"/></linearGradient><clipPath id="a"><path fill="#fff" d="M0 0h166v166H0z"/></clipPath><filter id="e" x="92" y="0" width="78" height="78" filterUnits="userSpaceOnUse" color-interpolation-filters="sRGB"><feFlood flood-opacity="0" result="BackgroundImageFix"/><feColorMatrix in="SourceAlpha" values="0 0 0 0 0 0 0 0 0 0 0 0 0 0 0 0 0 0 127 0" result="hardAlpha"/><feOffset dy="4"/><feGaussianBlur stdDeviation="6"/><feColorMatrix values="0 0 0 0 0 0 0 0 0 0 0 0 0 0 0 0 0 0 0.15 0"/><feBlend in2="BackgroundImageFix" result="effect1_dropShadow_2603_20195"/><feBlend in="SourceGraphic" in2="effect1_dropShadow_2603_20195" result="shape"/></filter></defs></svg>