<svg xmlns="http://www.w3.org/2000/svg" width="166" height="166" fill="none"><circle cx="83" cy="83" r="71" fill="#fff"/><mask id="a" mask-type="alpha" maskUnits="userSpaceOnUse" x="12" y="12" width="142" height="142"><circle cx="83" cy="83" r="71" fill="#fff"/></mask><g mask="url(#a)"><path fill="#EBEBEB" d="m160.835 20.146 5.796 1.553-40.635 151.65-5.795-1.553z"/><path fill="#EBEBEB" d="m162.674 98.285-1.553 5.795L9.47 63.446l1.552-5.796zM51.897 136.93l-1.553 5.795-57.955-15.529 1.553-5.795z"/><path fill="#FFC635" d="m92.254 1.77 14.489 3.882-40.635 151.65-14.489-3.882z"/><rect x="71.503" y="9.668" width="14" height="25" rx="1" transform="rotate(15 71.503 9.668)" fill="#EBEBEB"/><rect x="52.609" y="80.181" width="14" height="49" rx="1" transform="rotate(15 52.61 80.181)" fill="#EBEBEB"/><rect x="88.349" y="89.757" width="14" height="17" rx="1" transform="rotate(15 88.349 89.757)" fill="#EBEBEB"/><rect x="109.599" y="95.451" width="24" height="17" rx="1" transform="rotate(15 109.599 95.451)" fill="#EBEBEB"/><rect x="62.962" y="41.544" width="14" height="25" rx="1" transform="rotate(15 62.962 41.544)" fill="#EBEBEB"/><rect x="36.207" y="60.257" width="14" height="28" rx="1" transform="rotate(-75 36.207 60.257)" fill="#EBEBEB"/><rect x="5.297" y="51.975" width="14" height="28" rx="1" transform="rotate(-75 5.297 51.975)" fill="#EBEBEB"/><rect x="110.607" y="6.688" width="14" height="71" rx="1" transform="rotate(15 110.607 6.688)" fill="#EBEBEB"/><rect x="11.781" y="70.277" width="35" height="48" rx="17.5" transform="rotate(15 11.781 70.277)" fill="#E1FBDB"/><rect x="125.405" y="21.006" width="35" height="61" rx="2" transform="rotate(15 125.405 21.006)" fill="#E1FBDB"/><path d="M73.596 144.815c2.859-10.669 13.825-17.001 24.495-14.142l25.114 6.729a2 2 0 0 1 1.414 2.45l-14.753 55.058a2 2 0 0 1-2.449 1.414l-42.5-11.388a2 2 0 0 1-1.415-2.45l10.094-37.671z" fill="#E1FBDB"/><path d="M58.993 154.879c2.304-14.394 13.964-41.293 42.169-33.736l55.541 14.882" stroke="#FFC635" stroke-width="12"/></g><g filter="url(#b)"><circle cx="53" cy="24" r="9" fill="#fff"/><circle cx="53" cy="24" r="4" fill="url(#c)"/></g><g filter="url(#d)"><circle cx="143" cy="103" r="11" fill="#fff"/><circle cx="143" cy="103" r="4.889" fill="url(#e)"/></g><g filter="url(#f)"><circle cx="112" cy="45" r="9" fill="#fff"/><circle cx="112" cy="45" r="4" fill="url(#g)"/></g><g filter="url(#h)"><circle cx="53" cy="103" r="9" fill="#fff"/><circle cx="53" cy="103" r="4" fill="url(#i)"/></g><g filter="url(#j)"><circle cx="21" cy="49" r="7" fill="#fff"/><circle cx="21" cy="49" r="3.111" fill="url(#k)"/></g><defs><linearGradient id="c" x1="53" y1="20" x2="53" y2="28" gradientUnits="userSpaceOnUse"><stop stop-color="#63C74D"/><stop offset="1" stop-color="#6CE153"/></linearGradient><linearGradient id="e" x1="143" y1="98.111" x2="143" y2="107.889" gradientUnits="userSpaceOnUse"><stop stop-color="#63C74D"/><stop offset="1" stop-color="#6CE153"/></linearGradient><linearGradient id="g" x1="112" y1="41" x2="112" y2="49" gradientUnits="userSpaceOnUse"><stop stop-color="#63C74D"/><stop offset="1" stop-color="#6CE153"/></linearGradient><linearGradient id="i" x1="53" y1="99" x2="53" y2="107" gradientUnits="userSpaceOnUse"><stop stop-color="#63C74D"/><stop offset="1" stop-color="#6CE153"/></linearGradient><linearGradient id="k" x1="21" y1="45.889" x2="21" y2="52.111" gradientUnits="userSpaceOnUse"><stop stop-color="#63C74D"/><stop offset="1" stop-color="#6CE153"/></linearGradient><filter id="b" x="32" y="7" width="42" height="42" filterUnits="userSpaceOnUse" color-interpolation-filters="sRGB"><feFlood flood-opacity="0" result="BackgroundImageFix"/><feColorMatrix in="SourceAlpha" values="0 0 0 0 0 0 0 0 0 0 0 0 0 0 0 0 0 0 127 0"/><feOffset dy="4"/><feGaussianBlur stdDeviation="6"/><feColorMatrix values="0 0 0 0 0 0 0 0 0 0 0 0 0 0 0 0 0 0 0.15 0"/><feBlend in2="BackgroundImageFix" result="effect1_dropShadow"/><feBlend in="SourceGraphic" in2="effect1_dropShadow" result="shape"/></filter><filter id="d" x="120" y="84" width="46" height="46" filterUnits="userSpaceOnUse" color-interpolation-filters="sRGB"><feFlood flood-opacity="0" result="BackgroundImageFix"/><feColorMatrix in="SourceAlpha" values="0 0 0 0 0 0 0 0 0 0 0 0 0 0 0 0 0 0 127 0"/><feOffset dy="4"/><feGaussianBlur stdDeviation="6"/><feColorMatrix values="0 0 0 0 0 0 0 0 0 0 0 0 0 0 0 0 0 0 0.15 0"/><feBlend in2="BackgroundImageFix" result="effect1_dropShadow"/><feBlend in="SourceGraphic" in2="effect1_dropShadow" result="shape"/></filter><filter id="f" x="91" y="28" width="42" height="42" filterUnits="userSpaceOnUse" color-interpolation-filters="sRGB"><feFlood flood-opacity="0" result="BackgroundImageFix"/><feColorMatrix in="SourceAlpha" values="0 0 0 0 0 0 0 0 0 0 0 0 0 0 0 0 0 0 127 0"/><feOffset dy="4"/><feGaussianBlur stdDeviation="6"/><feColorMatrix values="0 0 0 0 0 0 0 0 0 0 0 0 0 0 0 0 0 0 0.15 0"/><feBlend in2="BackgroundImageFix" result="effect1_dropShadow"/><feBlend in="SourceGraphic" in2="effect1_dropShadow" result="shape"/></filter><filter id="h" x="32" y="86" width="42" height="42" filterUnits="userSpaceOnUse" color-interpolation-filters="sRGB"><feFlood flood-opacity="0" result="BackgroundImageFix"/><feColorMatrix in="SourceAlpha" values="0 0 0 0 0 0 0 0 0 0 0 0 0 0 0 0 0 0 127 0"/><feOffset dy="4"/><feGaussianBlur stdDeviation="6"/><feColorMatrix values="0 0 0 0 0 0 0 0 0 0 0 0 0 0 0 0 0 0 0.15 0"/><feBlend in2="BackgroundImageFix" result="effect1_dropShadow"/><feBlend in="SourceGraphic" in2="effect1_dropShadow" result="shape"/></filter><filter id="j" x="2" y="34" width="38" height="38" filterUnits="userSpaceOnUse" color-interpolation-filters="sRGB"><feFlood flood-opacity="0" result="BackgroundImageFix"/><feColorMatrix in="SourceAlpha" values="0 0 0 0 0 0 0 0 0 0 0 0 0 0 0 0 0 0 127 0"/><feOffset dy="4"/><feGaussianBlur stdDeviation="6"/><feColorMatrix values="0 0 0 0 0 0 0 0 0 0 0 0 0 0 0 0 0 0 0.15 0"/><feBlend in2="BackgroundImageFix" result="effect1_dropShadow"/><feBlend in="SourceGraphic" in2="effect1_dropShadow" result="shape"/></filter></defs></svg>