<svg xmlns="http://www.w3.org/2000/svg" width="166" height="166" fill="none"><g clip-path="url(#a)"><circle cx="81.5" cy="61.5" r="61.5" fill="#fff"/><path fill="#F6E2AF" d="M72 74h20v27H72z"/><rect x="58" y="21" width="48" height="60" rx="24" fill="#FFEBB8"/><path d="M51 43c0-12.15 9.85-22 22-22h17c0 12.15-9.85 22-22 22H51zM113 56c-12.703 0-23-10.297-23-23V21c12.703 0 23 10.297 23 23v12z" fill="#525252"/><path d="M65 54c1.913-1.51 6.991-3.622 12 0M87 54c1.913-1.51 6.991-3.622 12 0" stroke="#444" stroke-width="2" stroke-linecap="round" stroke-linejoin="round"/><rect x="80" y="54" width="4" height="10" rx="2" fill="#FFD4A1"/><rect x="77" y="61" width="10" height="6" rx="3" fill="#FFD4A2"/><path fill-rule="evenodd" clip-rule="evenodd" d="M119.582 101.794A61.237 61.237 0 0 1 81.5 115c-13.99 0-26.888-4.671-37.22-12.538C45.704 94.8 52.424 89 60.5 89h43c7.838 0 14.4 5.466 16.082 12.794z" fill="#59B446"/><path d="M66.437 84.819a1 1 0 0 1 1.186-.59l13.308 3.575a1 1 0 0 1 .675 1.321l-3.338 8.766a1 1 0 0 1-1.443.506l-12.083-7.14a1 1 0 0 1-.418-1.238l2.113-5.2zM97.563 84.819a1 1 0 0 0-1.186-.59L83.07 87.804a1 1 0 0 0-.675 1.321l3.338 8.766a1 1 0 0 0 1.443.506l12.083-7.14a1 1 0 0 0 .418-1.238l-2.113-5.2z" fill="#63C74D"/><path d="M91 69v0a5 5 0 0 1-5 5h-8a5 5 0 0 1-5-5v0" stroke="#FFAF82" stroke-width="3" stroke-linecap="round" stroke-linejoin="round"/><g filter="url(#b)"><rect x="22" y="108" width="119" height="36" rx="18" fill="#fff"/></g><path d="M67.572 116.311c.336-.837 1.52-.837 1.856 0l1.812 4.513a1 1 0 0 0 .86.625l4.853.329c.899.061 1.265 1.187.573 1.765l-3.732 3.118a1 1 0 0 0-.328 1.011l1.186 4.717c.22.874-.738 1.57-1.502 1.091l-4.118-2.586a1 1 0 0 0-1.064 0l-4.119 2.586c-.763.479-1.72-.217-1.501-1.091l1.187-4.717a1 1 0 0 0-.33-1.011l-3.731-3.118c-.692-.578-.326-1.704.573-1.765l4.852-.329a1 1 0 0 0 .86-.625l1.813-4.513zM41.572 116.311c.336-.837 1.52-.837 1.856 0l1.812 4.513a1 1 0 0 0 .86.625l4.853.329c.899.061 1.265 1.187.573 1.765l-3.732 3.118a1 1 0 0 0-.328 1.011l1.186 4.717c.22.874-.738 1.57-1.502 1.091l-4.118-2.586a1 1 0 0 0-1.064 0l-4.119 2.586c-.763.479-1.72-.217-1.501-1.091l1.187-4.717a1 1 0 0 0-.33-1.011l-3.731-3.118c-.692-.578-.326-1.704.573-1.765l4.852-.329a1 1 0 0 0 .86-.625l1.813-4.513zM93.572 116.311c.336-.837 1.52-.837 1.856 0l1.812 4.513a1 1 0 0 0 .86.625l4.853.329c.899.061 1.265 1.187.573 1.765l-3.732 3.118a1 1 0 0 0-.328 1.011l1.186 4.717c.22.874-.738 1.57-1.502 1.091l-4.118-2.586a1 1 0 0 0-1.064 0l-4.118 2.586c-.764.479-1.722-.217-1.502-1.091l1.186-4.717a1 1 0 0 0-.328-1.011l-3.732-3.118c-.692-.578-.326-1.704.573-1.765l4.852-.329a1 1 0 0 0 .86-.625l1.813-4.513zM120.572 116.311c.336-.837 1.52-.837 1.856 0l1.812 4.513c.143.356.478.599.861.625l4.852.329c.899.061 1.265 1.187.573 1.765l-3.732 3.118a1 1 0 0 0-.328 1.011l1.186 4.717c.22.874-.738 1.57-1.501 1.091l-4.119-2.586a1.001 1.001 0 0 0-1.064 0l-4.119 2.586c-.763.479-1.721-.217-1.501-1.091l1.186-4.717a1 1 0 0 0-.328-1.011l-3.732-3.118c-.692-.578-.326-1.704.573-1.765l4.852-.329c.383-.026.718-.269.861-.625l1.812-4.513z" fill="#FFC635"/></g><defs><clipPath id="a"><path fill="#fff" d="M0 0h166v166H0z"/></clipPath><filter id="b" x="-2" y="90" width="167" height="84" filterUnits="userSpaceOnUse" color-interpolation-filters="sRGB"><feFlood flood-opacity="0" result="BackgroundImageFix"/><feColorMatrix in="SourceAlpha" values="0 0 0 0 0 0 0 0 0 0 0 0 0 0 0 0 0 0 127 0"/><feOffset dy="6"/><feGaussianBlur stdDeviation="12"/><feColorMatrix values="0 0 0 0 0.360784 0 0 0 0 0.419608 0 0 0 0 0.752941 0 0 0 0.2 0"/><feBlend in2="BackgroundImageFix" result="effect1_dropShadow"/><feBlend in="SourceGraphic" in2="effect1_dropShadow" result="shape"/></filter></defs></svg>