<svg xmlns="http://www.w3.org/2000/svg" width="166" height="166" fill="none"><g clip-path="url(#a)"><g filter="url(#b)"><rect x="12" y="117" width="142" height="22" rx="11" fill="#fff"/></g><rect x="23" y="40" width="24" height="65" rx="2" fill="url(#c)"/><rect x="55" y="24" width="24" height="81" rx="2" fill="url(#d)"/><rect x="87" y="48" width="24" height="57" rx="2" fill="url(#e)"/><rect x="119" y="34" width="24" height="71" rx="2" fill="url(#f)"/><rect x="26" y="125" width="18" height="6" rx="3" fill="#EBEBEB"/><rect x="58" y="125" width="18" height="6" rx="3" fill="#EBEBEB"/><rect x="90" y="125" width="18" height="6" rx="3" fill="#EBEBEB"/><rect x="122" y="125" width="18" height="6" rx="3" fill="#EBEBEB"/><rect x="25" y="90" width="20" height="1" rx=".5" fill="#fff" fill-opacity=".5"/><rect x="57" y="90" width="20" height="1" rx=".5" fill="#fff" fill-opacity=".5"/><rect x="89" y="90" width="20" height="1" rx=".5" fill="#fff" fill-opacity=".5"/><rect x="121" y="90" width="20" height="1" rx=".5" fill="#fff" fill-opacity=".5"/><rect x="25" y="73" width="20" height="1" rx=".5" fill="#fff" fill-opacity=".5"/><rect x="57" y="73" width="20" height="1" rx=".5" fill="#fff" fill-opacity=".5"/><rect x="89" y="73" width="20" height="1" rx=".5" fill="#fff" fill-opacity=".5"/><rect x="121" y="73" width="20" height="1" rx=".5" fill="#fff" fill-opacity=".5"/><rect x="25" y="56" width="20" height="1" rx=".5" fill="#fff" fill-opacity=".5"/><rect x="57" y="56" width="20" height="1" rx=".5" fill="#fff" fill-opacity=".5"/><rect x="57" y="39" width="20" height="1" rx=".5" fill="#fff" fill-opacity=".5"/><rect x="89" y="56" width="20" height="1" rx=".5" fill="#fff" fill-opacity=".5"/><rect x="121" y="56" width="20" height="1" rx=".5" fill="#fff" fill-opacity=".5"/><rect x="121" y="39" width="20" height="1" rx=".5" fill="#fff" fill-opacity=".5"/></g><defs><linearGradient id="c" x1="35" y1="40" x2="35" y2="105" gradientUnits="userSpaceOnUse"><stop stop-color="#63C74D"/><stop offset="1" stop-color="#6CE153"/></linearGradient><linearGradient id="d" x1="67" y1="24" x2="67" y2="105" gradientUnits="userSpaceOnUse"><stop stop-color="#63C74D"/><stop offset="1" stop-color="#6CE153"/></linearGradient><linearGradient id="e" x1="99" y1="48" x2="99" y2="105" gradientUnits="userSpaceOnUse"><stop stop-color="#63C74D"/><stop offset="1" stop-color="#6CE153"/></linearGradient><linearGradient id="f" x1="131" y1="34" x2="131" y2="105" gradientUnits="userSpaceOnUse"><stop stop-color="#63C74D"/><stop offset="1" stop-color="#6CE153"/></linearGradient><clipPath id="a"><path fill="#fff" d="M0 0h166v166H0z"/></clipPath><filter id="b" x="-12" y="99" width="190" height="70" filterUnits="userSpaceOnUse" color-interpolation-filters="sRGB"><feFlood flood-opacity="0" result="BackgroundImageFix"/><feColorMatrix in="SourceAlpha" values="0 0 0 0 0 0 0 0 0 0 0 0 0 0 0 0 0 0 127 0"/><feOffset dy="6"/><feGaussianBlur stdDeviation="12"/><feColorMatrix values="0 0 0 0 0.360784 0 0 0 0 0.419608 0 0 0 0 0.752941 0 0 0 0.2 0"/><feBlend in2="BackgroundImageFix" result="effect1_dropShadow"/><feBlend in="SourceGraphic" in2="effect1_dropShadow" result="shape"/></filter></defs></svg>